<?xml version="1.0" standalone="no"?>
<!DOCTYPE svg PUBLIC "-//W3C//DTD SVG 1.1//EN" "http://www.w3.org/Graphics/SVG/1.1/DTD/svg11.dtd" >
<svg xmlns="http://www.w3.org/2000/svg">
<metadata>
Created by FontForge 20120731 at Tue Sep  9 15:18:18 2014
 By Ads
</metadata>
<defs>
<font id="iconfont" horiz-adv-x="1024" >
  <font-face 
    font-family="iconfont"
    font-weight="500"
    font-stretch="normal"
    units-per-em="1024"
    panose-1="2 0 6 3 0 0 0 0 0 0"
    ascent="812"
    descent="-212"
    x-height="792"
    bbox="34 -186 988 792"
    underline-thickness="50"
    underline-position="-100"
    unicode-range="U+0078-E649"
  />
<missing-glyph horiz-adv-x="374" 
d="M34 0v682h272v-682h-272zM68 34h204v614h-204v-614z" />
    <glyph glyph-name=".notdef" horiz-adv-x="374" 
d="M34 0v682h272v-682h-272zM68 34h204v614h-204v-614z" />
    <glyph glyph-name=".null" horiz-adv-x="0" 
 />
    <glyph glyph-name="nonmarkingreturn" horiz-adv-x="341" 
 />
    <glyph glyph-name="x" unicode="x" horiz-adv-x="1001" 
d="M281 543q-27 -1 -53 -1h-83q-18 0 -36.5 -6t-32.5 -18.5t-23 -32t-9 -45.5v-76h912v41q0 16 -0.5 30t-0.5 18q0 13 -5 29t-17 29.5t-31.5 22.5t-49.5 9h-133v-97h-438v97zM955 310v-52q0 -23 0.5 -52t0.5 -58t-10.5 -47.5t-26 -30t-33 -16t-31.5 -4.5q-14 -1 -29.5 -0.5
t-29.5 0.5h-32l-45 128h-439l-44 -128h-29h-34q-20 0 -45 1q-25 0 -41 9.5t-25.5 23t-13.5 29.5t-4 30v167h911zM163 247q-12 0 -21 -8.5t-9 -21.5t9 -21.5t21 -8.5q13 0 22 8.5t9 21.5t-9 21.5t-22 8.5zM316 123q-8 -26 -14 -48q-5 -19 -10.5 -37t-7.5 -25t-3 -15t1 -14.5
t9.5 -10.5t21.5 -4h37h67h81h80h64h36q23 0 34 12t2 38q-5 13 -9.5 30.5t-9.5 34.5q-5 19 -11 39h-368zM336 498v228q0 11 2.5 23t10 21.5t20.5 15.5t34 6h188q31 0 51.5 -14.5t20.5 -52.5v-227h-327z" />
    <glyph glyph-name="uniE600" unicode="&#xe600;" 
d="M672 300l-320 -224v448z" />
    <glyph glyph-name="uniE601" unicode="&#xe601;" 
d="M512 140l-224 320h448z" />
    <glyph glyph-name="uniE607" unicode="&#xe607;" 
d="M923 641h-822q-11 0 -19 -8t-8 -20v-493q0 -11 8 -19t19 -8h176q12 0 20 8t8 19t-8 19t-20 8h-149v439h768v-439h-149q-12 0 -20 -8t-8 -19t8 -19t20 -8h176q11 0 19 8t8 19v493q0 12 -8 20t-19 8zM534 191q-8 11 -22 11t-22 -11l-164 -219q-10 -13 -2.5 -28.5
t24.5 -15.5h328q17 0 24.5 15.5t-2.5 28.5zM402 -17l110 146l110 -146h-220z" />
    <glyph glyph-name="uniE608" unicode="&#xe608;" 
d="M705.5 665q-80.5 80 -193.5 80t-193.5 -80t-80.5 -193.5t80 -193.5q28 -28 62 -47q-88 -28 -158 -89q-60 -53 -98.5 -122.5t-49.5 -147.5q-2 -11 5 -20t18 -11h4q10 0 18 6.5t9 17.5q21 142 131 237t253 95q113 0 193.5 80.5t80.5 194t-80.5 193.5zM512 252
q-91 0 -155 64.5t-64 155t64 154.5t155 64t155 -64t64 -154.5t-64 -155t-155 -64.5zM946 -127q-9 70 -40 134q-31 62 -79 112q-8 8 -19.5 8.5t-19.5 -7.5t-8.5 -19.5t7.5 -19.5q88 -91 105 -216q1 -10 9 -16.5t18 -6.5h4q11 1 18 10t5 21z" />
    <glyph glyph-name="uniE60A" unicode="&#xe60a;" 
d="M359.5 -159q-119.5 0 -204 84.5t-84.5 204t84.5 204t204.5 84.5q60 0 115 -24l137 137h60v75h74v59l53 53h149v-149l-324 -324q24 -55 24 -115q0 -120 -84.5 -204.5t-204 -84.5zM360 366q-98 0 -167.5 -69t-69.5 -167t69.5 -167.5t167.5 -69.5t167 69.5t69 167.5
q0 57 -26 108l-9 17l336 335v77h-77l-22 -23v-90h-75v-75h-90l-148 -148l-17 9q-51 26 -108 26zM304.5 2q-41.5 0 -71 29.5t-29.5 71.5t29.5 71.5t71 29.5t71 -29.5t29.5 -71.5t-29.5 -71.5t-71 -29.5zM304.5 152q-20.5 0 -35 -14.5t-14.5 -34.5t14.5 -34.5t35 -14.5
t35 14.5t14.5 34.5t-14.5 34.5t-35 14.5z" />
    <glyph glyph-name="uniE60C" unicode="&#xe60c;" 
d="M764 233q27 65 27 136q0 96 -49 179q-46 80 -127 127q-9 6 -20 3t-17 -12.5t-3 -20.5t13 -17q68 -40 108 -110t40 -149q0 -68 -30 -130l-8 -18l207 -207v-116h-116l-207 207l-18 -8q-62 -30 -130 -30q-124 0 -212.5 88.5t-88.5 213t88.5 213t212.5 88.5q12 0 20 8t8 19.5
t-8 19.5t-20 8q-72 0 -138 -28q-64 -27 -113.5 -76.5t-76.5 -113.5q-28 -66 -28 -138.5t28 -138.5q27 -64 76.5 -113.5t113.5 -76.5q66 -28 138 -28q71 0 136 27l197 -196h193v194zM297 368.5q0 -56.5 40.5 -96.5t97 -40t96.5 40t40 96.5t-40 97t-96.5 40.5t-97 -40.5
t-40.5 -97zM517 369q0 -34 -24.5 -58.5t-58.5 -24.5t-58 24.5t-24 58.5t24 58t58 24t58.5 -24t24.5 -58z" />
    <glyph glyph-name="uniE60E" unicode="&#xe60e;" 
d="M930.5 238q-11.5 0 -20 -8t-8.5 -20v-285q0 -11 -8 -19.5t-20 -8.5h-740q-12 0 -20 8.5t-8 19.5v626q0 12 8 20.5t20 8.5h114q12 0 20 8t8 20t-8 20t-20 8h-114q-35 0 -60 -25t-25 -60v-626q0 -35 25 -60t60 -25h740q35 0 60 25t25 60v285q0 12 -8.5 20t-20 8zM732 324
v-171l256 284l-256 285v-171q-82 0 -154 -21.5t-124.5 -57t-96.5 -83.5t-73.5 -98.5t-52 -104t-35 -98.5t-20.5 -83.5t-10.5 -57.5t-2.5 -22q13 62 72 133t139.5 129.5t178 97.5t179.5 39zM732 494h57v79l122 -136l-122 -136v79h-57q-100 0 -217.5 -50t-216.5 -130
q22 46 48.5 86.5t66 79.5t84.5 66.5t105.5 44.5t129.5 17z" />
    <glyph glyph-name="uniE613" unicode="&#xe613;" 
d="M914 453q-33 79 -93.5 139.5t-139.5 93.5q-81 35 -170.5 35t-170.5 -35q-79 -33 -139.5 -93.5t-93.5 -139.5q-35 -82 -35 -171t35 -170q33 -79 93.5 -139.5t139.5 -94.5q81 -34 170 -34q109 0 205 51q10 5 13.5 16t-2 21t-16.5 13t-21 -2q-83 -44 -179 -44
q-104 0 -192 51.5t-139.5 139.5t-51.5 192t51.5 192.5t139.5 140t192 51.5t192.5 -51.5t140 -140t51.5 -192.5q0 -95 -44 -179q-6 -10 -2.5 -20.5t13.5 -16t21 -2t16 13.5q51 95 51 204q0 89 -35 171zM729 279l-263 -7l236 202l-186 -22l-252 -224h270l-188 -247z" />
    <glyph glyph-name="uniE615" unicode="&#xe615;" 
d="M310 389v-200v-5q0 -4 3 -12.5t7.5 -15t15 -12t24.5 -5.5q22 0 34.5 12.5t13.5 25.5l1 12v200v5q0 4 -3 12.5t-7.5 15t-14.5 12t-24 5.5q-23 0 -35.5 -12.5t-13.5 -25.5zM609 139v-200q0 -2 0.5 -5t3 -12t7.5 -15.5t15 -12t24 -5.5q22 0 34.5 12.5t14.5 25.5l1 12v200v5
q0 4 -3 12.5t-7.5 15t-15 12t-24.5 5.5q-22 0 -34.5 -12.5t-13.5 -24.5zM609 639v-150q0 -2 0.5 -5.5t3 -12t7.5 -15t15 -12t24 -5.5q22 0 34.5 12.5t14.5 24.5l1 13v150v5q0 3 -3 12t-7.5 15.5t-15 12t-24.5 5.5q-22 0 -34.5 -12.5t-13.5 -25.5zM559 589h-449v-50h449v50z
M909 539v50h-150v-50h150zM260 339h-150v-50h150v50zM909 289v50h-450v-50h450zM559 39h-449v-50h449v50zM909 -11v50h-150v-50h150z" />
    <glyph glyph-name="uniE616" unicode="&#xe616;" 
d="M953 387q-4 20 -20.5 36t-36.5 19q-20 4 -46.5 16.5t-37.5 33.5q-7 13 -8.5 33t0.5 34.5t5 24.5q5 20 -2 41.5t-24 33.5l-2 1l-119 67h-1q-12 5 -26 5q-31 0 -52 -20q-12 -13 -33 -25.5t-40 -12.5t-40 12.5t-33 25.5q-20 20 -52 20q-14 0 -26 -5h-1l-119 -67l-2 -1
q-16 -12 -23.5 -33.5t-2.5 -41.5q3 -10 5 -24.5t0.5 -34.5t-8.5 -33q-11 -21 -37.5 -33.5t-46.5 -16.5q-20 -3 -36 -19t-21 -36q-12 -57 -12 -104q0 -27 3 -49q3 -21 19 -37t38 -19q22 -2 51.5 -14t41.5 -34q11 -16 8 -43t-9 -46t-13 -33q-10 -19 -5.5 -41.5t21.5 -36.5
l1 -1l128 -82l2 -1q12 -6 25 -6q35 0 51 30q14 24 40.5 51t52.5 27t52.5 -27t40.5 -51q16 -30 51 -30q13 0 25 6l2 1l128 82l1 1q17 14 21.5 36.5t-5.5 41.5q-7 14 -13 33t-9 46t8 43q12 22 41 34t52 14q22 3 38 19t19 37q3 22 3 49q0 47 -12 104zM906 241q0 -1 -2.5 -3.5
t-4.5 -2.5q-25 -3 -53 -13q-60 -22 -84 -65q-25 -46 -8 -116q9 -33 22 -58q1 -4 -2 -9l-120 -77q-1 0 -2 1q-14 26 -37 51q-51 56 -105 56t-105 -56q-23 -25 -37 -51q-1 -1 -2 -1l-120 77q-3 5 -1 9q12 25 21 58q17 70 -8 116q-24 43 -84 65q-28 10 -53 13q-2 0 -4.5 2.5
t-2.5 3.5q-2 19 -2 42q0 41 11 93q1 2 4.5 6t6.5 4q22 4 48 15q54 23 76 63q20 36 16 90q-2 26 -8 46q-2 7 4 13l112 62q1 1 3 1q8 0 11 -4q8 -8 19.5 -17.5t40 -23.5t54.5 -14t54.5 14t40 23.5t19.5 17.5q4 4 11 4q2 0 3 -1l112 -62q6 -6 4 -13q-6 -20 -8 -46
q-4 -54 16 -90q22 -40 76 -63q26 -11 48 -15q3 0 7 -3.5t4 -6.5q11 -53 11 -93q0 -23 -2 -42zM510 428q-59 0 -100.5 -42t-41.5 -100.5t41.5 -100.5t100.5 -42q12 0 20 8.5t8 20.5t-8 20t-20 8q-35 0 -60 25t-25 60.5t25 60.5t60 25t60 -25t25 -60q0 -12 8.5 -20.5
t20.5 -8.5t20 8.5t8 20.5q0 58 -41.5 100t-100.5 42z" />
    <glyph glyph-name="uniE617" unicode="&#xe617;" 
d="M722 637h-585v-585h53v-53h-106v691h691v-106h-53v53zM722 -1h-319v53h319v-53zM669 158h-266v53h266v-53zM616 318h-213v53h213v-53zM882 477h-585v-585h585v585zM243 -161v692h692v-692h-692z" />
    <glyph glyph-name="uniE618" unicode="&#xe618;" 
d="M828 481q-11 0 -18.5 -8t-7.5 -19v-532q0 -11 -8 -18.5t-19 -7.5h-532q-11 0 -18.5 7.5t-7.5 18.5v532q0 11 -8 19t-19 8t-18.5 -8t-7.5 -19v-532q0 -33 23 -56t56 -23h532q33 0 56.5 23t23.5 56v532q0 11 -8 19t-19 8zM376 -37v491q0 11 -7.5 19t-18.5 8t-19 -8t-8 -19
v-491q0 -11 8 -19t19 -8t18.5 8t7.5 19zM695 -37v491q0 11 -7.5 19t-18.5 8t-19 -8t-8 -19v-491q0 -11 8 -19t19 -8t18.5 8t7.5 19zM908 587h-159q-14 0 -22 11l-47 64q-11 13 -29 22.5t-35 9.5h-213q-17 0 -35 -9.5t-29 -22.5l-48 -64q-8 -11 -21 -11h-160
q-11 0 -18.5 -7.5t-7.5 -18.5t7.5 -19t18.5 -8h160q17 0 35 9t29 23l48 64q8 10 21 10h213q13 0 21 -10l48 -64q10 -14 28 -23t36 -9h159q11 0 19 8t8 19t-8 18.5t-19 7.5z" />
    <glyph glyph-name="uniE619" unicode="&#xe619;" 
d="M117 183l-28 -28v-226l28 -28h790l28 28v226l-28 28h-790zM879 -43h-734v170h734v-170zM315 221q7 0 14 4q10 6 13 17t-3 22l-226 394q-5 11 -16.5 14t-21.5 -3t-13 -17t2 -22l226 -394q8 -15 25 -15zM949 669q-10 6 -21.5 3t-16.5 -14l-226 -394q-6 -11 -3 -22t13 -17
q7 -4 14 -4q17 0 25 15l226 394q5 11 2 22t-13 17zM230 14q12 0 20 8t8 20t-8 20t-20 8t-20 -8t-8 -20t8 -20t20 -8z" />
    <glyph glyph-name="uniE61A" unicode="&#xe61a;" 
d="M823 70h-1h-1l-198 194q41 29 65 73.5t24 95.5q0 85 -59.5 145t-143.5 60t-143.5 -60t-59.5 -145q0 -51 24 -95.5t64 -73.5l-198 -194q-46 -2 -77.5 -35t-31.5 -80t33 -80.5t80.5 -33.5t81 33.5t33.5 80.5q0 33 -17 60t-44 41l188 185q35 -13 67 -13t67 13l190 -187
q-26 -15 -41.5 -41.5t-15.5 -57.5q0 -47 33.5 -80.5t81 -33.5t80.5 33.5t33 81t-33 81t-81 33.5zM200.5 -110q-26.5 0 -45 19.5t-18.5 46t18.5 46t45 19.5t45 -19.5t18.5 -46t-18.5 -46t-45 -19.5zM357 433q-1 64 44 110t108 46t107.5 -45.5t44.5 -110.5q0 -41 -20.5 -76.5
t-54.5 -55.5l-7 -4q-34 -19 -70 -19q-10 0 -26 4t-38.5 14.5t-41.5 27t-32.5 45.5t-13.5 64zM823.5 -110q-26.5 0 -45 19.5t-18.5 46t18.5 46t45 19.5t45 -19.5t18.5 -46t-18.5 -46t-45 -19.5z" />
    <glyph glyph-name="uniE61B" unicode="&#xe61b;" 
d="M959 258l-387 387q-25 25 -60 25t-60 -25l-387 -387q-8 -8 -8 -20t8.5 -20t20 -8t19.5 8l37 37v-330q0 -35 25 -60t61 -25h113q36 0 61 25t25 60v114q0 12 8 20.5t20 8.5h171q12 0 20 8t8 20t-8 20t-20 8h-171q-35 0 -60 -25t-25 -60v-114q0 -11 -8.5 -19.5t-20.5 -8.5
h-113q-12 0 -20.5 8.5t-8.5 19.5v387l293 293q8 8 20 8t20 -8l293 -293v-387q0 -11 -8.5 -19.5t-20.5 -8.5h-113q-12 0 -20.5 -8.5t-8.5 -20t8.5 -20t20.5 -8.5h113q36 0 61 25t25 60v330l37 -37q8 -8 19.5 -8t20 8t8.5 20t-8 20z" />
    <glyph glyph-name="uniE61D" unicode="&#xe61d;" 
d="M912 294q-12 98 -82 195q-6 8 -16.5 9.5t-19 -4.5t-10.5 -16.5t5 -19.5q62 -85 72 -170q10 -83 -34 -137q-58 -72 -180 -61q-128 12 -246.5 108t-156.5 218q-36 117 22 189q41 51 118 60q79 10 169 -25q10 -4 20 0.5t14 14.5t-0.5 19.5t-14.5 13.5q-103 40 -194 29
q-98 -13 -152 -79q-37 -47 -45 -111q-7 -60 14 -126q43 -138 173.5 -243.5t273.5 -119.5q18 -1 34 -1q50 0 93 14q61 21 99 67q57 71 44 176zM672 -80h-516v78q0 14 11 24l110 104q8 8 8 18.5t-7.5 18.5t-18 8t-18.5 -7l-110 -104q-12 -11 -19.5 -28.5t-7.5 -33.5v-78
q0 -21 15.5 -36t36.5 -15h516q10 0 17.5 7.5t7.5 18t-7.5 18t-17.5 7.5zM576 443.5q8 -7.5 18.5 -7.5t17.5 8l207 206q7 7 7 18t-7.5 18.5t-18 7.5t-18.5 -8l-206 -206q-8 -8 -8 -18.5t8 -18z" />
    <glyph glyph-name="uniE61E" unicode="&#xe61e;" 
d="M270 293q8 0 15 4q10 7 12 18t-4 20l-81 122h633q12 0 20 8t8 19.5t-8 19.5t-20 8h-633l81 122q6 9 4 20.5t-11.5 17.5t-20.5 4t-18 -12l-119 -179l119 -180q8 -12 23 -12zM772 281q-6 9 -17 11.5t-20.5 -4t-12 -17.5t4.5 -21l81 -121h-634q-11 0 -19 -8.5t-8 -19.5
t8 -19t19 -8h634l-81 -122q-7 -9 -4.5 -20.5t11.5 -17.5q7 -5 16 -5q14 0 22 13l120 179z" />
    <glyph glyph-name="uniE620" unicode="&#xe620;" 
d="M931 472q-34 82 -97 145t-145 97q-84 36 -177 36t-177 -36q-82 -34 -145 -97t-97 -145q-36 -84 -36 -176.5t36 -177.5q34 -82 97 -145t145 -97q84 -36 177 -36t177 36q82 34 145 97t97 145q36 85 36 177.5t-36 176.5zM887 170h1q-20 -25 -77 -51q-14 -6 -31 -12
q14 73 16 160h113q-3 -51 -19 -99zM688 -4q-26 -56 -51 -77v1l2 -2q-48 -17 -99 -20v113q87 2 160 16q-6 -17 -12 -31zM137 170l-3 -2q-16 48 -19 99h113q2 -87 16 -160q-17 6 -31 12q-56 26 -77 51h1zM136.5 420q1.5 2 6.5 7.5t23.5 18t41.5 22.5q16 8 36 15
q-14 -73 -16 -159h-113q3 47 18 92q2 2 3.5 4zM336 594q26 57 51 77l-2 2q48 16 99 19v-113q-87 -2 -160 -16q6 17 12 31zM540 522q99 -2 178 -21q19 -79 21 -177h-199v198zM637 670.5q2 -1.5 7.5 -6.5t18 -23.5t22.5 -41.5q8 -16 15 -36q-73 14 -160 16v113q48 -3 93 -17
q2 -3 4 -4.5zM484 522v-198h-199q2 98 21 177q79 19 178 21zM285 267h199v-199q-99 2 -178 21q-19 79 -21 178zM336 -4q-6 14 -12 31q73 -14 160 -16v-113q-51 3 -99 20l2 2v-1q-25 21 -51 77zM540 68v199h199q-2 -99 -21 -178q-79 -19 -178 -21zM796 324q-2 86 -16 159
q17 -6 31 -12q57 -26 77 -51h-1l3 2q16 -48 19 -98h-113zM840 520q-34 16 -75 28q-12 41 -28 76q61 -43 103 -104zM287 624q-16 -35 -28 -76q-41 -12 -75 -28q42 61 103 104zM184 70q34 -16 75 -28q12 -41 28 -75q-61 42 -103 103zM737 -33q16 34 28 75q41 12 75 28
q-42 -61 -103 -103z" />
    <glyph glyph-name="uniE622" unicode="&#xe622;" 
d="M945 660h-425q-11 0 -19 -8t-8 -19v-425q0 -11 8 -19t19 -8h425q11 0 19 8t8 19v425q0 11 -8 19t-19 8zM918 234h-372v372h372v-372zM812 -85h-691v585h319v53h-346q-11 0 -18.5 -7.5t-7.5 -18.5v-638q0 -12 7.5 -19.5t18.5 -7.5h745q11 0 18.5 7.5t7.5 19.5v239h-53
v-213zM727 88z" />
    <glyph glyph-name="uniE623" unicode="&#xe623;" 
d="M122 720v-877h620q11 0 18.5 7.5t7.5 18.5t-7.5 18.5t-18.5 7.5h-568v773h309v-526l129 129l129 -129v526h103v-644q0 -11 7.5 -18.5t18 -7.5t18.5 7.5t8 18.5v696h-774zM689 266l-77 78l-77 -78v402h154v-402z" />
    <glyph glyph-name="uniE625" unicode="&#xe625;" 
d="M928 479q-34 82 -97 145t-145 97q-85 36 -177.5 36t-176.5 -36q-82 -34 -145 -97t-97 -145q-36 -84 -36 -177q0 -110 50 -207q47 -93 132 -157q9 -7 21 -5t19 11t5.5 21t-11.5 19q-76 57 -117.5 140.5t-41.5 177.5q0 108 53 200t145 145t200 53t199.5 -53t145 -145
t53.5 -200q0 -94 -41.5 -177.5t-117.5 -140.5q-10 -7 -11.5 -19t5.5 -21q8 -11 23 -11q9 0 17 5q84 64 132 157q50 97 50 207q0 93 -36 177zM793 309q0 118 -83 201t-201 83t-201.5 -83t-83.5 -201q0 -59 24 -113q23 -52 64 -92q8 -8 20 -7.5t20 9t8 20t-9 19.5
q-70 68 -70 164q0 94 67 160.5t161 66.5t160.5 -66.5t66.5 -160.5q0 -96 -69 -164q-9 -8 -9 -19.5t8 -20.5t20 -9t20 8q41 40 64 92q23 54 23 113zM563 119q-21 34 -54 34t-54 -34l-112 -187q-20 -34 -4 -63t56 -29h228q40 0 56 29t-4 63zM623 -103h-228h-6q1 3 3 6l112 186
q3 5 5 6q2 -1 5 -6l112 -186q2 -3 2 -6h-5z" />
    <glyph glyph-name="uniE626" unicode="&#xe626;" 
d="M967 307v4q-3 84 -36 161q-34 82 -97 145t-145 97q-84 36 -177 36t-177 -36q-82 -34 -145 -97t-97 -145q-36 -84 -36 -176.5t36 -177.5q34 -82 97 -145t145 -97q84 -36 177 -36q129 0 238 67q106 66 165 176q5 10 1.5 21.5t-14 17t-21.5 2t-17 -14.5
q-48 -91 -134.5 -147.5t-189.5 -63.5v141q0 12 -8 20.5t-20 8.5t-20 -8.5t-8 -20.5v-141q-148 10 -253.5 115.5t-115.5 253.5h141q12 0 20 8t8 20t-8 20.5t-20 8.5h-141q10 147 115.5 252.5t253.5 115.5v-141q0 -12 8 -20t20 -8t20 8t8 20v141q145 -10 249.5 -111.5
t118.5 -245.5h-140q-12 0 -20 -8t-8 -20t8 -20.5t20 -8.5h148q8 -11 23 -11q11 0 19.5 8t8.5 20v10v2z" />
    <glyph glyph-name="uniE628" unicode="&#xe628;" 
d="M154.5 520q10.5 -5 22 -1.5t16.5 14.5l44 88q2 3 7 6.5t9 3.5h512q4 0 9 -3.5t7 -6.5l44 -88q8 -16 25 -16q7 0 13 3q11 5 14.5 16.5t-1.5 21.5l-44 88q-9 18 -28 30t-39 12h-512q-20 0 -39 -12t-28 -30l-44 -88q-5 -10 -1.5 -21.5t14 -16.5zM850 460h-682
q-24 0 -40.5 -16.5t-16.5 -40.5v-455q0 -23 16.5 -40t40.5 -17h682q24 0 40.5 17t16.5 40v455q0 24 -16.5 40.5t-40.5 16.5zM850 -52h-682v0v455h682v-455v0zM708 346h-398q-12 0 -20.5 -8t-8.5 -20t8.5 -20.5t20.5 -8.5h398q12 0 20 8.5t8 20.5t-8 20t-20 8zM708 232h-398
q-12 0 -20.5 -8t-8.5 -20t8.5 -20t20.5 -8h398q12 0 20 8t8 20t-8 20t-20 8zM708 119h-398q-12 0 -20.5 -8.5t-8.5 -20.5t8.5 -20t20.5 -8h398q12 0 20 8t8 20t-8 20.5t-20 8.5z" />
    <glyph glyph-name="uniE629" unicode="&#xe629;" 
d="M130 -48h290v-58h-348v812h870v-348h-58v290h-754v-696zM942 97l-232 -203v174h-290v58h290v174z" />
    <glyph glyph-name="uniE62A" unicode="&#xe62a;" 
d="M514 -160q-89 0 -170 34q-79 34 -139.5 94.5t-93.5 139.5q-35 81 -35 170.5t35 170.5q33 79 93.5 139.5t139.5 93.5q81 35 170.5 35t170.5 -35q79 -33 139.5 -93.5t93.5 -139.5q35 -81 35 -171q0 -109 -51 -204q-5 -10 -16 -13.5t-21 2t-13 16t2 20.5q44 84 44 179
q0 104 -51.5 192.5t-139.5 140t-192.5 51.5t-192.5 -51.5t-139.5 -140t-51.5 -192.5t51.5 -192t139.5 -139.5t192 -51.5q96 0 179 44q10 5 21 2t16.5 -13t2 -21t-13.5 -16q-96 -51 -205 -51zM480 59q-8 0 -15 6q-9 9 -6 21l57 228l-52 -13q-9 -2 -17 2.5t-10 13.5t2.5 16.5
t13.5 9.5l88 22q12 3 20.5 -5.5t5.5 -20.5l-56 -224l28 9q9 3 17 -1t11 -13t-1.5 -17t-12.5 -11l-66 -22q-3 -1 -7 -1zM565 431q-3 0 -5 1q-9 2 -13.5 10t-2.5 17l5 22q3 9 10.5 13.5t16.5 2.5t13.5 -10t2.5 -17l-6 -22q-4 -17 -21 -17z" />
    <glyph glyph-name="uniE62B" unicode="&#xe62b;" 
d="M967 413v171q0 24 -16.5 40.5t-40.5 16.5h-796q-24 0 -40.5 -16.5t-16.5 -40.5v-626q0 -23 16.5 -40t40.5 -17h796q24 0 40.5 17t16.5 40v455zM114 584h796v-171h-796v171zM910 -42h-796v398h796v-398zM597 186h57q12 0 20.5 8t8.5 20t-8.5 20.5t-20.5 8.5h-57
q-11 0 -19.5 -8.5t-8.5 -20.5t8.5 -20t19.5 -8zM199 72h228q11 0 19.5 8.5t8.5 20t-8.5 20t-19.5 8.5h-228q-12 0 -20 -8.5t-8 -20t8 -20t20 -8.5zM199 186h285q11 0 19.5 8t8.5 20t-8.5 20.5t-19.5 8.5h-285q-12 0 -20 -8.5t-8 -20.5t8 -20t20 -8z" />
    <glyph glyph-name="uniE630" unicode="&#xe630;" 
d="M903 88l-26 15q41 84 41 177.5t-41 177.5l26 15q11 6 14 17.5t-3 22t-17.5 13.5t-22.5 -3l-26 -15q-52 77 -132.5 124t-174.5 54v30q0 12 -8.5 20.5t-20.5 8.5t-20.5 -8.5t-8.5 -20.5v-30q-94 -7 -174.5 -54t-132.5 -124l-26 15q-11 6 -22.5 3t-17.5 -13.5t-3 -22
t14 -17.5l26 -15q-41 -84 -41 -177.5t41 -177.5l-26 -15q-11 -6 -14 -17.5t3 -21.5q8 -15 25 -15q8 0 15 4l26 15q52 -76 132.5 -123.5t174.5 -53.5v-30q0 -12 8.5 -20.5t20.5 -8.5t20.5 8.5t8.5 20.5v30q94 6 174.5 53.5t132.5 123.5l26 -15q7 -4 15 -4q17 0 25 15
q6 10 3 21.5t-14 17.5zM541 -66v86q0 12 -8.5 20.5t-20.5 8.5t-20.5 -8.5t-8.5 -20.5v-86q-79 6 -146 45.5t-111 102.5l74 43q11 6 14 17.5t-3 22t-17.5 13.5t-22.5 -3l-74 -43q-33 71 -33 149t33 148l74 -43q7 -4 15 -4q17 0 25 15q6 10 3 21.5t-14 17.5l-74 43
q44 63 111 102.5t146 46.5v-86q0 -12 8.5 -20.5t20.5 -8.5t20.5 8.5t8.5 20.5v86q79 -7 146 -46.5t111 -102.5l-74 -43q-11 -6 -14 -17.5t3 -21.5q8 -15 25 -15q8 0 15 4l74 43q33 -70 33 -148t-33 -149l-74 43q-11 6 -22.5 3t-17.5 -13.5t-3 -22t14 -17.5l74 -43
q-44 -63 -111 -102.5t-146 -45.5z" />
    <glyph glyph-name="uniE631" unicode="&#xe631;" 
d="M885 115h-58v145q0 12 -8.5 20.5t-20.5 8.5h-261v174h58q24 0 41 17t17 41v174q0 24 -17 41t-41 17h-174q-24 0 -41 -17t-17 -41v-174q0 -24 17 -41t41 -17h58v-174h-261q-12 0 -20.5 -8.5t-8.5 -20.5v-145h-58q-24 0 -41 -17t-17 -41v-174q0 -24 17 -41t41 -17h174
q24 0 41 17t17 41v174q0 24 -17 41t-41 17h-58v116h522v-116h-58q-24 0 -41 -17t-17 -41v-174q0 -24 17 -41t41 -17h174q24 0 41 17t17 41v174q0 24 -17 41t-41 17zM421 695h174v-174h-174v174zM305 -117h-174v174h174v-174zM885 -117h-174v174h174v-174z" />
    <glyph glyph-name="uniE633" unicode="&#xe633;" 
d="M223 459q0 -83 16 -156.5t41.5 -125t57 -94t61.5 -69t56.5 -44.5t41.5 -25.5t16.5 -7.5t16.5 7.5t41.5 25.5t56.5 44.5t61.5 69t56.5 94t41.5 125t16.5 156.5l-291 116zM513 2q-22 12 -45 29t-56.5 53.5t-59 80t-46 111t-24.5 144.5l231 93l232 -93q-4 -77 -24.5 -144.5
t-46 -111t-59 -80t-56.5 -53.5t-46 -29zM513.5 749q-94.5 0 -180.5 -36.5t-148 -99t-99 -148.5t-37 -180t37 -180t99 -148t148 -99t180 -37q110 0 207 48q11 6 15 17.5t-1.5 22t-17 14.5t-22.5 -2q-85 -42 -181 -42q-110 0 -203.5 54.5t-148 148t-54.5 203.5t54.5 203.5
t148 148t204 54.5t204 -54.5t148 -148t54.5 -203.5q0 -99 -45 -186q-6 -10 -2 -21.5t14.5 -17t22 -2t16.5 14.5q52 99 52 212q0 94 -37 180t-99 148.5t-148 99t-180.5 36.5z" />
    <glyph glyph-name="uniE636" unicode="&#xe636;" 
d="M512 749q-94 0 -180 -36.5t-148 -98.5t-99 -148t-37 -180.5t37 -180.5t99 -148t148 -99t180 -37t180 37t148.5 99t99 148t36.5 180.5t-36.5 180.5t-99 148t-148.5 98.5t-180 36.5zM512 -121q-110 0 -203.5 54.5t-148 148t-54.5 203.5t54.5 204t148 148t203.5 54
t203.5 -54t148 -148t54.5 -204t-54.5 -203.5t-148 -148t-203.5 -54.5zM309 430h406v58h-406v-58zM309 256h406v58h-406v-58zM309 82h406v58h-406v-58zM357 121z" />
    <glyph glyph-name="uniE637" unicode="&#xe637;" 
d="M862 704h-697q-36 0 -61.5 -25.5t-25.5 -61.5v-696q0 -36 25.5 -61.5t61.5 -25.5h473q12 0 20.5 8.5t8.5 20.5t-8.5 20.5t-20.5 8.5h-473q-12 0 -20.5 8.5t-8.5 20.5v696q0 12 8.5 20.5t20.5 8.5h697q12 0 20.5 -8.5t8.5 -20.5v-535q0 -12 8.5 -20.5t20.5 -8.5t20.5 8.5
t8.5 20.5v535q0 36 -25.5 61.5t-61.5 25.5zM484 472h-290q-12 0 -20.5 -8.5t-8.5 -20.5t8.5 -20.5t20.5 -8.5h290q12 0 20.5 8.5t8.5 20.5t-8.5 20.5t-20.5 8.5zM194 240h174q12 0 20.5 8.5t8.5 20.5t-8.5 20.5t-20.5 8.5h-174q-12 0 -20.5 -8.5t-8.5 -20.5t8.5 -20.5
t20.5 -8.5zM194 66h290q12 0 20.5 8.5t8.5 20.5t-8.5 20.5t-20.5 8.5h-290q-12 0 -20.5 -8.5t-8.5 -20.5t8.5 -20.5t20.5 -8.5zM564 317q-7 9 -19 10t-21.5 -7t-10 -20t6.5 -21l349 -406q8 -10 22 -10q10 0 18 7q10 8 10.5 20t-6.5 21z" />
    <glyph glyph-name="uniE63A" unicode="&#xe63a;" 
d="M643 715q-122 0 -216 -76t-105 -184q-12 2 -23 2q-96 0 -164 -68.5t-68 -164.5t68 -164t164 -68h12l261 261h-215q-12 0 -20.5 -8.5t-8.5 -20.5t8.5 -20.5t20.5 -8.5h75l-144 -144q-69 4 -116 54.5t-47 118.5q0 72 51 123t123 51q43 0 80 -19q11 -6 22.5 -2t17 14.5t2 22
t-14.5 16.5q-15 8 -32 14q0 2 1 3q7 89 86 152t182 63q111 0 189.5 -78.5t78.5 -189t-78.5 -189t-189.5 -78.5h-11l-267 -267h225q11 0 18.5 7.5t7.5 18.5t-7.5 19t-18.5 8h-96l160 161q129 4 219.5 97.5t90.5 222.5q0 87 -43 161t-117 117t-161 43z" />
    <glyph glyph-name="uniE63B" unicode="&#xe63b;" 
d="M701 -132h-592v700h54q11 0 19 8t8 19t-8 19t-19 8h-81q-11 0 -19 -8t-8 -19v-754q0 -11 8 -19t19 -8h619q12 0 19.5 8t7.5 19t-7.5 19t-19.5 8zM343 566h348q12 0 20.5 8.5t8.5 20.5t-8.5 20.5t-20.5 8.5h-348q-12 0 -20.5 -8.5t-8.5 -20.5t8.5 -20.5t20.5 -8.5z
M952 624h-87q-12 0 -20.5 -8.5t-8.5 -20.5t8.5 -20.5t20.5 -8.5h58v-522q0 -12 8.5 -20.5t20.5 -8.5t20.5 8.5t8.5 20.5v551q0 12 -8.5 20.5t-20.5 8.5zM256 479q12 0 20.5 8.5t8.5 20.5v174q0 12 -8.5 20.5t-20.5 8.5t-20.5 -8.5t-8.5 -20.5v-174q0 -12 8.5 -20.5
t20.5 -8.5zM778 479q12 0 20.5 8.5t8.5 20.5v174q0 12 -8.5 20.5t-20.5 8.5t-20.5 -8.5t-8.5 -20.5v-174q0 -12 8.5 -20.5t20.5 -8.5zM479 354q-8 9 -20 9t-20.5 -8.5t-8.5 -20.5t8 -21l465 -464q8 -8 20 -8t20.5 8.5t8.5 20.5t-8 20z" />
    <glyph glyph-name="uniE63D" unicode="&#xe63d;" 
d="M133 289q-12 0 -20.5 -8.5t-8.5 -20.5v-406q0 -12 8.5 -20.5t20.5 -8.5t20.5 8.5t8.5 20.5v406q0 12 -8.5 20.5t-20.5 8.5zM365.5 522q-11.5 0 -20.5 -9t-9 -20v-639q0 -12 9 -20.5t20.5 -8.5t20.5 8.5t9 20.5v639q0 11 -9 20t-20.5 9zM656 115q-12 0 -20.5 -8.5
t-8.5 -20.5v-232q0 -12 8.5 -20.5t20.5 -8.5t20.5 8.5t8.5 20.5v232q0 12 -8.5 20.5t-20.5 8.5zM888 696q-12 0 -20.5 -8.5t-8.5 -20.5v-813q0 -12 8.5 -20.5t20.5 -8.5t20.5 8.5t8.5 20.5v813q0 12 -8.5 20.5t-20.5 8.5z" />
    <glyph glyph-name="uniE63E" unicode="&#xe63e;" 
d="M862 277h-232l-116 -203l116 -203h232l116 203zM828 -71h-165l-82 145l82 145h165l83 -145zM746 480l-116 203h-232l-116 -203l116 -203h232zM431 335l-82 145l82 145h165l83 -145l-83 -145h-165zM166 277l-116 -203l116 -203h232l116 203l-116 203h-232zM364 -71h-165
l-83 145l83 145h165l83 -145z" />
    <glyph glyph-name="uniE640" unicode="&#xe640;" 
d="M860 743h-696q-48 0 -82 -34t-34 -82v-377v0v-319q0 -48 34 -82t82 -34h696q48 0 82 34t34 82v696q0 48 -34 82t-82 34zM164 685h696q24 0 41 -17t17 -41v-232h-87q-10 0 -18 -6.5t-10 -15.5l-24 -94h-122q-18 0 -26 -16l-134 -269l-101 609q-4 20 -25 23.5t-30 -15.5
l-166 -332h-69v348q0 24 17 41t41 17zM106 -69v290h87q18 0 26 16l134 268l101 -608q4 -21 25 -24h4h-319q-24 0 -41 17t-17 41zM860 -127h-377q18 0 26 16l166 332h127q10 0 18 6t10 16l24 94h64v-406q0 -24 -17 -41t-41 -17z" />
    <glyph glyph-name="uniE642" unicode="&#xe642;" 
d="M511.5 750q-94.5 0 -180 -37t-148 -99t-99 -148t-36.5 -180q0 -47 9 -94q2 -11 12 -18t22 -4.5t18.5 12.5t4.5 22q-8 40 -8 82q0 110 54 203.5t148 148t204 54.5t203.5 -54.5t148 -148t54.5 -203.5t-54.5 -203.5t-148 -148t-203.5 -54.5q-45 0 -89 10q-12 2 -22 -4.5
t-12.5 -18t4 -21.5t17.5 -13q50 -11 102 -11q94 0 180 36.5t148 99t99 148.5t37 180t-37 180t-99 148t-148 99t-180.5 37zM745 447l-606 -152l232 -116l74 -257zM305 277l322 80l-164 -287l-43 149z" />
    <glyph glyph-name="uniE643" unicode="&#xe643;" 
d="M396 675h-232q-24 0 -41 -17t-17 -41v-232q0 -24 17 -41t41 -17h232q24 0 41 17t17 41v232q0 24 -17 41t-41 17zM396 385h-232v232h232v-232zM396 211h-232q-24 0 -41 -17t-17 -41v-232q0 -24 17 -41t41 -17h232q24 0 41 17t17 41v232q0 24 -17 41t-41 17zM396 -79h-232
v232h232v-232zM860 675h-232q-24 0 -41 -17t-17 -41v-232q0 -24 17 -41t41 -17h232q24 0 41 17t17 41v232q0 24 -17 41t-41 17zM860 385h-232v232h232v-232zM831 211h-174q-36 0 -61.5 -25.5t-25.5 -61.5v-174q0 -36 25.5 -61.5t61.5 -25.5h87q12 0 20.5 8.5t8.5 20.5
t-8.5 20.5t-20.5 8.5h-87q-12 0 -20.5 8.5t-8.5 20.5v174q0 12 8.5 20.5t20.5 8.5h174q12 0 20.5 -8.5t8.5 -20.5v-87q0 -12 8.5 -20.5t20.5 -8.5t20.5 8.5t8.5 20.5v87q0 36 -25.5 61.5t-61.5 25.5z" />
    <glyph glyph-name="uniE645" unicode="&#xe645;" 
d="M776 458l28 67l-33 -64q-117 79 -258 79q-94 0 -180 -37t-148 -99t-99 -148t-37 -180q0 -12 8.5 -20.5t20.5 -8.5t20.5 8.5t8.5 20.5q0 110 54.5 203.5t148 148t203.5 54.5q128 0 232 -73l-258 -510q0 -1 -1 -2q-4 -11 0.5 -22.5t15.5 -16t22 0.5t16 16l214 528
q77 -57 121.5 -143t44.5 -184q0 -12 8.5 -20.5t20.5 -8.5t20.5 8.5t8.5 20.5q0 116 -54.5 217t-147.5 165z" />
    <glyph glyph-name="uniE647" unicode="&#xe647;" 
d="M627 664q0 12 -8.5 20.5t-20.5 8.5h-117q-12 0 -20 -8.5t-8 -20.5t8 -20.5t20 -8.5h117q12 0 20.5 8.5t8.5 20.5zM743 722q0 12 -8.5 20.5t-20.5 8.5t-20.5 -8.5t-8.5 -20.5v-116q0 -12 8.5 -20.5t20.5 -8.5t20.5 8.5t8.5 20.5v116zM313 -149q0 -10 6.5 -19.5t16.5 -9.5
h610q12 0 20.5 8.5t8.5 20.5v813q0 12 -8.5 20.5t-20.5 8.5h-116q-12 0 -20.5 -8.5t-8.5 -20.5t8.5 -20.5t20.5 -8.5h58q12 0 20.5 -8.5t8.5 -20.5v-697q0 -12 -8.5 -20.5t-20.5 -8.5h-551q-11 0 -17.5 -10t-6.5 -19zM75 54q12 0 20.5 8.5t8.5 20.5v523q0 12 8.5 20.5
t20.5 8.5h117q11 0 19.5 8.5t8.5 20.5t-8.5 20.5t-19.5 8.5h-175q-12 0 -20.5 -8.5t-8.5 -20.5v-581q0 -12 8.5 -20.5t20.5 -8.5v0zM395 722q0 12 -8.5 20.5t-20.5 8.5h-1q-12 0 -20.5 -8.5t-8.5 -20.5v-116q0 -12 8.5 -20.5t20.5 -8.5h1q12 0 20.5 8.5t8.5 20.5v116z
M801 432q0 12 -8.5 20.5t-20.5 8.5h-523q-12 0 -20.5 -8.5t-8.5 -20.5t8.5 -20.5t20.5 -8.5h523q12 0 20.5 8.5t8.5 20.5zM801 316q0 12 -8.5 20.5t-20.5 8.5h-523q-12 0 -20.5 -8.5t-8.5 -20.5t8.5 -20.5t20.5 -8.5h523q12 0 20.5 8.5t8.5 20.5zM801 200q0 12 -8.5 20.5
t-20.5 8.5h-523q-12 0 -20.5 -8.5t-8.5 -20.5v-1q0 -12 8.5 -20t20.5 -8h523q12 0 20.5 8t8.5 20v1z" />
    <glyph glyph-name="uniE648" unicode="&#xe648;" 
d="M914 333v-384q0 -16 -6 -22h-801q-5 6 -5 22v384h812zM972 391h-928v-442q0 -33 16.5 -56.5t40.5 -23.5h813q24 0 41 23.5t17 56.5v442zM911 623q3 -5 3 -24v-92h-812v92q0 17 5 24h807h-3zM914 681h-813q-24 0 -40.5 -24t-16.5 -58v-150h928v150q0 34 -17 58t-41 24z
M682 162h116v-116h-116v116z" />
    <glyph glyph-name="uniE649" unicode="&#xe649;" 
d="M911 46h-698q5 234 90 382q40 70 92 107.5t110 37.5q48 0 96 -24.5t87 -69.5q96 -108 109 -285q1 -11 9.5 -18.5t19.5 -6.5t18.5 9.5t6.5 19.5q-7 94 -37.5 173.5t-75 132t-97 83.5t-108.5 38q1 2 1 4v58q0 12 -8.5 20.5t-20.5 8.5t-20.5 -8.5t-8.5 -20.5v-58v-4
q-64 -8 -120.5 -51.5t-98.5 -118.5q-93 -161 -98 -409h-60q-11 0 -19 -7.5t-8 -18.5t8 -18.5t19 -7.5h81q1 0 3 -0.5t3 -0.5t2.5 0.5t2.5 0.5h720q11 0 18.5 7.5t7.5 18.5t-7.5 18.5t-18.5 7.5zM694 -49q-9 6 -20 4t-17 -11q-2 -3 -6.5 -8t-18.5 -17t-30.5 -21.5
t-42.5 -17.5t-54 -8t-54 7.5t-42.5 17t-30.5 21.5t-18.5 17.5t-6.5 8.5q-7 9 -17.5 11t-20 -4t-11.5 -17t5 -20q3 -5 9 -12t24 -23t39 -28t54.5 -22t69.5 -10t69.5 10t54 22t39 28t24 23t9.5 12q6 9 4 20t-11 17z" />
  </font>
</defs>
</svg>
